<svg xmlns="http://www.w3.org/2000/svg" viewBox="0 0 156 153.41"><defs><style>.cls-1{fill:#59251b;}.cls-1,.cls-2,.cls-3,.cls-4,.cls-5,.cls-6{fill-rule:evenodd;}.cls-2{fill:#fffcf5;}.cls-3{fill:#f1e3d6;}.cls-4{fill:#fff;}.cls-5{fill:#d14641;}.cls-6{fill:#ff8884;}</style></defs><g id="Layer_2" data-name="Layer 2"><g id="File_3" data-name="File 3"><g id="Facing_Left" data-name="Facing Left"><path class="cls-1" d="M121.31,27.82c22.8,15.25,36.05,38.38,34.58,68-.63,12.57-4.71,24.3-12.69,33.86-17.66,21.14-48.62,26.05-73.47,22.8s-53.45-16-64.91-40.9c-5.18-11.29-6-23.66-3.3-35.95,6.4-29,25.3-47.92,51.35-56.77C54.48,9.38,62.9,2.74,72,3.92a16.36,16.36,0,0,1,4.24,1.16,16.66,16.66,0,0,1,14-4.94,16.52,16.52,0,0,1,12.21,8.37,16.21,16.21,0,0,1,4.4,0C115.89,9.67,122.25,18.25,121.31,27.82Z"/><path class="cls-2" d="M116.06,30.29h0c-1.83-1.62-6.76-3.11-9.83-3a16.81,16.81,0,0,1,10.44-.14c.56-6.84-4-12.92-10.51-13.77a11.7,11.7,0,0,0-6.46,1c-2.25.92-6,4.77-7.43,7.65A20,20,0,0,1,98.49,11.3a12,12,0,0,0-8.94-6.25,12.35,12.35,0,0,0-12.27,6.41C76,13.63,75.19,19,75.68,22.22A20.25,20.25,0,0,1,74.54,9.75a11.64,11.64,0,0,0-3.23-.91C64.58,8,58.36,13,57.4,20.16a13.38,13.38,0,0,0-.11,2.44c.24,2.52,2.76,7.23,5,9.38a18.08,18.08,0,0,1-8-8.44c-24.66,8.35-42.27,26-48.26,53.14-17.9,81,141,101.76,145.13,19C152.65,66.84,139.27,44.66,116.06,30.29Z"/><path class="cls-3" d="M92.42,21.75l-.15.29.15-.29Zm-.15.29c.19-5.16,1.76-9.61,4.8-12.82a12.94,12.94,0,0,1,1.42,2.08A20,20,0,0,0,92.27,22Z"/><path class="cls-3" d="M62.31,32a18.08,18.08,0,0,1-8-8.44c-.89.3-1.78.62-2.65.95A17,17,0,0,0,62.31,32Z"/><path class="cls-3" d="M75.57,21.19c0,.36.06.71.11,1l-.11-1Zm.11,1A18.92,18.92,0,0,1,72.56,9.07a11.85,11.85,0,0,1,2,.68A20.25,20.25,0,0,0,75.68,22.22Z"/><path class="cls-3" d="M106.23,27.31a16.81,16.81,0,0,1,10.44-.14,13.43,13.43,0,0,0-.07-2.91A17.87,17.87,0,0,0,106.23,27.31Z"/><path class="cls-3" d="M10.35,112c26.54,49.74,137.43,52.69,140.86-16.29a71.67,71.67,0,0,0-5.35-32c1.65,55-25.43,86.42-84.41,74.92C43.49,135.09,25.05,125.29,10.35,112Z"/><path class="cls-1" d="M93.22,76.93a9.45,9.45,0,0,0-7.94,10.93A9.81,9.81,0,0,0,96,96.38,9.45,9.45,0,0,0,104,85.45,9.8,9.8,0,0,0,93.22,76.93Z"/><path class="cls-4" d="M93,78.39a4,4,0,0,0-3.4,4.52A4,4,0,0,0,94,86.43a4,4,0,0,0,3.4-4.53A4,4,0,0,0,93,78.39Z"/><path class="cls-1" d="M62.27,93.23a7.15,7.15,0,0,1,1.27,0c.34.06.55.23.57.41s-.16.36-.46.54a3,3,0,0,1-1.22.43,3.8,3.8,0,0,1-1.32-.38c-.35-.17-.58-.33-.6-.52s.16-.36.49-.43A8.65,8.65,0,0,1,62.27,93.23Z"/><path class="cls-1" d="M38,73.37c5-.64,9.4,3.13,9.84,8.42S44.62,91.9,39.63,92.54a8.89,8.89,0,0,1-9.84-8.42C29.35,78.82,33,74,38,73.37Z"/><path class="cls-4" d="M40.59,75.19A3.91,3.91,0,0,1,45,78.5a3.86,3.86,0,0,1-3.37,4.31,3.91,3.91,0,0,1-4.39-3.31A3.85,3.85,0,0,1,40.59,75.19Z"/><path class="cls-1" d="M45.23,99.29c3.73,5.92,10.57,4.46,17.66,1.55,8.32,4.16,17,6.11,21.69,1.65a8.8,8.8,0,0,1-4.3,3.49v.14c.12,8.1-.72,14.12-2.78,18.62S72,131.9,67,131.86H67c-4.48-.7-7.8-3.82-10.29-8.71s-4-10.76-5.08-18.33l0-.14A7.52,7.52,0,0,1,45.23,99.29Z"/><path class="cls-5" d="M52.79,104.85c1.09,7.14,2.66,13.25,5,17.77s5.33,7.42,9.35,8.07c4.38,0,7.41-2.26,9.32-6.43s2.74-10.3,2.68-17.9a20.36,20.36,0,0,1-7.15-.35,59.43,59.43,0,0,1-9.26-2.82,45.24,45.24,0,0,1-5.6,1.32A21.87,21.87,0,0,1,52.79,104.85Z"/><path class="cls-6" d="M78.56,116.16a22.72,22.72,0,0,0-11-.91A22,22,0,0,0,56.57,120c.37.91.75,1.78,1.17,2.59,2.3,4.53,5.33,7.42,9.35,8.07,4.38,0,7.41-2.26,9.32-6.43A29.18,29.18,0,0,0,78.56,116.16Z"/><path class="cls-1" d="M67.38,54.32c8.47-3.09,10-15.61,7.08-21.21C73.79,42.89,71.31,49.76,67.38,54.32Z"/><path class="cls-1" d="M81,37.05c.82,9.31,4.08,12.27,8.62,11.85C82.81,41.77,83,40.3,81,37.05Z"/><path class="cls-1" d="M72,35.9c-.1,5.65-5.58,11.46-9.22,10.44C66.19,44.64,69.22,40.24,72,35.9Z"/></g></g></g></svg>